<svg xmlns="http://www.w3.org/2000/svg" xmlns:xlink="http://www.w3.org/1999/xlink" viewBox="0 0 126.71 149.1">
  <defs>
    <path id="a" d="M.2 145.7V142a3.15 3.15 0 0 1 .98-2.55 3.99 3.99 0 0 1 2.63-.82 4.08 4.08 0 0 1 2.5.7 2.32 2.32 0 0 1 .94 1.97v1.36a.06.06 0 0 1-.07.07H5.66a.06.06 0 0 1-.07-.07v-1.26a1.21 1.21 0 0 0-.46-.98 2.03 2.03 0 0 0-1.32-.38 1.97 1.97 0 0 0-1.44.5 2.01 2.01 0 0 0-.5 1.5v3.64a2.01 2.01 0 0 0 .5 1.5 2.36 2.36 0 0 0 2.76.1 1.25 1.25 0 0 0 .46-.98v-1.4a.06.06 0 0 1 .07-.06h1.52a.06.06 0 0 1 .07.07v1.49a2.35 2.35 0 0 1-.95 1.98 4.7 4.7 0 0 1-5.12-.1 3.16 3.16 0 0 1-.98-2.57Z" data-name="Path 61846"/>
    <path id="b" d="M15.5 143.05h3.52a.06.06 0 0 1 .07.07v1.27a.06.06 0 0 1-.07.08H15.5v3.07h3.81a.06.06 0 0 1 .07.08v1.27a.06.06 0 0 1-.07.07h-5.06v.01h-2.08a3.8 3.8 0 0 1-2.53-.78 3.03 3.03 0 0 1-.93-2.45V142a3.02 3.02 0 0 1 .92-2.45 3.82 3.82 0 0 1 2.54-.78h7.14a.06.06 0 0 1 .07.08v1.25a.06.06 0 0 1-.07.08H15.5Zm-1.67 4.5v-7.36h-1.66q-1.8 0-1.8 1.9v3.56q0 1.9 1.8 1.9Z" data-name="Path 61847"/>
    <path id="c" d="M34.35 148.96a.08.08 0 0 1-.09-.06 1.83 1.83 0 0 1-.1-.75v-2.35a1.03 1.03 0 0 0-.3-.86 1.7 1.7 0 0 0-1.02-.23h-1.86v4.18a.06.06 0 0 1-.07.07h-1.52a.06.06 0 0 1-.07-.07v-10.04a.06.06 0 0 1 .07-.08h3.55a3.6 3.6 0 0 1 2.09.51 1.81 1.81 0 0 1 .72 1.59v1.18a2.1 2.1 0 0 1-.36 1.26 1.47 1.47 0 0 1-.94.6v.1a1.43 1.43 0 0 1 1.37 1.55v2.01a6.19 6.19 0 0 0 .03.73 2.3 2.3 0 0 0 .14.56c.02.07 0 .1-.06.1Zm-.57-8.54a1.64 1.64 0 0 0-.98-.23h-1.82v3.1h1.9a1.49 1.49 0 0 0 .91-.22.9.9 0 0 0 .3-.75v-1.13a.9.9 0 0 0-.3-.77Z" data-name="Path 61849"/>
    <path id="d" d="M47.09 142v3.74a3 3 0 0 1-.93 2.44 3.83 3.83 0 0 1-2.54.78h-3.25a.06.06 0 0 1-.07-.07v-10.04a.07.07 0 0 1 .07-.08h3.25a3.82 3.82 0 0 1 2.54.78 3.02 3.02 0 0 1 .93 2.45Zm-3.47-1.8h-1.66v7.34h1.66q1.8 0 1.8-1.9v-3.56q0-1.89-1.8-1.89Z" data-name="Path 61850"/>
    <path id="e" d="M50.54 143.05h3.53a.06.06 0 0 1 .07.07v1.27a.06.06 0 0 1-.07.08h-3.53v3.07h3.82a.06.06 0 0 1 .07.08v1.27a.06.06 0 0 1-.07.07h-5.4a.06.06 0 0 1-.08-.07v-10.04a.06.06 0 0 1 .08-.08h5.4a.06.06 0 0 1 .07.08v1.24c0 .06-.03.09-.07.09h-3.82Z" data-name="Path 61851"/>
    <path id="f" d="M76.56 138.85c-.02-.05 0-.08.05-.08h1.57a.1.1 0 0 1 .08.06l1.72 6.37c.05.22.1.56.17 1s.12.79.13 1.03h.24a14.06 14.06 0 0 1 .3-2.02l1.72-6.37c.02-.04.04-.06.07-.06h1.56a.1.1 0 0 1 .06.02.04.04 0 0 1 .01.05l-2.58 10.04c-.02.05-.05.07-.08.07h-2.35c-.03 0-.05-.02-.07-.07Z" data-name="Path 61854"/>
    <path id="g" d="M98.44 148.86c-.02.07-.04.1-.07.1h-5.4a.06.06 0 0 1-.07-.07v-10.04a.06.06 0 0 1 .07-.08h1.52a.06.06 0 0 1 .07.08v8.7h3.81c.05 0 .07.03.07.1Z" data-name="Path 61856"/>
    <path id="h" d="M105.09 148.86c-.02.07-.05.1-.07.1h-5.4a.06.06 0 0 1-.08-.07v-10.04a.06.06 0 0 1 .08-.08h1.51a.06.06 0 0 1 .08.08v8.7h3.81c.05 0 .07.03.07.1Z" data-name="Path 61857"/>
  </defs>
  <g data-name="Group 9423">
    <g data-name="Group 8949">
      <g data-name="Group 8762">
        <path fill="#fff" d="M123.27 15.76a30.4 30.4 0 0 0-14.56-13.4A27.14 27.14 0 0 0 97.9 0C73.75 0 67.81 18.7 63.34 18.7 59.63 18.7 52.94 0 28.8 0a27.15 27.15 0 0 0-10.83 2.36 30.4 30.4 0 0 0-14.55 13.4c-4.22 7.9-5.08 18.32.55 30.18 11.77 24.83 51.2 55.95 59.45 55.95 8.1 0 47.53-31.12 59.3-55.95 5.62-11.86 4.77-22.28.55-30.18Z" data-name="Path 61842"/>
      </g>
      <path fill="#19599c" d="M63.34 50.56c14.14-7.69 45.37-42.25 45.37-48.2A27.14 27.14 0 0 0 97.9 0C73.75 0 67.81 18.7 63.34 18.7 59.63 18.7 52.94 0 28.8 0a27.15 27.15 0 0 0-10.83 2.36c0 5.95 31.24 40.51 45.37 48.2Z" data-name="Path 61843"/>
      <path fill="#cf0a2c" d="M123.27 15.75c0 6.6-40.83 49.2-59.93 59.1-19.09-9.91-59.92-52.5-59.92-59.1-4.22 7.91-5.08 18.33.55 30.19 11.77 24.83 51.2 55.95 59.45 55.95 8.1 0 47.53-31.12 59.3-55.95 5.62-11.86 4.77-22.28.55-30.19Z" data-name="Path 61844"/>
    </g>
    <g data-name="Group 8950">
      <path d="M68.14 106.46h-4.26v22.01h4.26Zm50.2 18.23a1.7 1.7 0 0 1-1.95-1.9v-16.33h-4.26v16.44q0 5.57 5.2 5.57h9.34v-3.78Zm-59.26-10.7v-1.95q0-5.57-4.98-5.57H43.43v22h4.28v-8.68h3.26c.71 0 1.16.3 1.55 1.17l3.72 7.51h4.74l-4.48-9.1q2.58-1.13 2.58-5.38Zm-4.35-.27q0 2.35-1.95 2.35h-5.07v-5.85h5.07q1.95 0 1.95 2.35ZM36.96 98.99h-3.98l-2.09 5.34h3.09Zm2.6 29.48v-3.78h-8.8a1.27 1.27 0 0 1-1.26-1.28v-4.13h8.65v-3.8H29.5v-4a1.26 1.26 0 0 1 1.26-1.25h8.8v-3.76H28.93a3.7 3.7 0 0 0-3.7 3.72v14.58a3.74 3.74 0 0 0 3.74 3.71Zm68.31 0v-3.76h-8.8a1.27 1.27 0 0 1-1.26-1.28v-4.15h8.66v-3.8h-8.65v-4a1.26 1.26 0 0 1 1.26-1.25h8.8v-3.76H97.24a3.7 3.7 0 0 0-3.7 3.72v14.58a3.74 3.74 0 0 0 3.73 3.72ZM8.3 111.53v16.94h4.3V111.5a1.32 1.32 0 0 1 1.26-1.27h1.49a1.25 1.25 0 0 1 1.25 1.24v17.01h4.3v-18.32c0-2.04-1.24-3.69-3.28-3.69H13.4a3.2 3.2 0 0 0-2.97 2.22 3.2 3.2 0 0 0-3-2.22H0v22.01h4.3v-18.25H7a1.33 1.33 0 0 1 1.28 1.3Zm80.84 11.37v-1.14a4.66 4.66 0 0 0-2.9-4.65 4.08 4.08 0 0 0 2.19-3.93v-1.14q0-5.58-4.98-5.58H73.27v22.01h10.88q4.98 0 4.98-5.57Zm-11.6-12.69h4.76q1.95 0 1.95 2.36v.55q0 2.36-1.95 2.36h-4.76Zm5.04 14.48h-5.03v-5.42h5.03q1.95 0 1.95 2.36v.7q0 2.36-1.95 2.36Z" data-name="Path 61845"/>
      <g data-name="Group 8764">
        <use xlink:href="#a" data-name="Path 61846"/>
        <use xlink:href="#b" data-name="Path 61847"/>
        <path d="M20.81 146.43v-7.58a.06.06 0 0 1 .08-.08h1.5a.06.06 0 0 1 .08.08v7.34a1.46 1.46 0 0 0 .39 1.14 1.87 1.87 0 0 0 1.26.34 1.84 1.84 0 0 0 1.26-.34 1.5 1.5 0 0 0 .37-1.14v-7.34a.06.06 0 0 1 .07-.08h1.52a.06.06 0 0 1 .07.08v7.58a2.36 2.36 0 0 1-.84 2.04 4.1 4.1 0 0 1-2.45.62 4.13 4.13 0 0 1-2.45-.62 2.34 2.34 0 0 1-.86-2.04Z" data-name="Path 61848"/>
        <use xlink:href="#c" data-name="Path 61849"/>
        <use xlink:href="#d" data-name="Path 61850"/>
        <use xlink:href="#e" data-name="Path 61851"/>
        <path d="M55.64 145.35a.06.06 0 0 1 .07-.07h1.52a.06.06 0 0 1 .07.07v1.12a1.06 1.06 0 0 0 .4.91 2.17 2.17 0 0 0 1.26.3 3.03 3.03 0 0 0 1.28-.2.77.77 0 0 0 .38-.76v-.82a.99.99 0 0 0-.27-.71 2.09 2.09 0 0 0-.68-.47c-.27-.12-.64-.26-1.11-.41a15.5 15.5 0 0 1-1.53-.57 2.67 2.67 0 0 1-.96-.75 1.93 1.93 0 0 1-.4-1.27v-.84a1.88 1.88 0 0 1 .85-1.68 4.3 4.3 0 0 1 2.38-.55 4.35 4.35 0 0 1 2.47.6 2.15 2.15 0 0 1 .9 1.91v1.13a.06.06 0 0 1-.08.07h-1.52a.06.06 0 0 1-.07-.07v-1.07a1.02 1.02 0 0 0-.4-.88 2.24 2.24 0 0 0-1.3-.3q-1.57 0-1.57.89v.7a.86.86 0 0 0 .26.61 2.04 2.04 0 0 0 .64.44q.39.17 1.07.4 1.02.34 1.58.59a2.81 2.81 0 0 1 .98.73 1.8 1.8 0 0 1 .43 1.23v1.19a1.88 1.88 0 0 1-.87 1.74 4.75 4.75 0 0 1-2.45.53q-3.33 0-3.33-2.56Z" data-name="Path 61852"/>
        <path d="M66.32 146.78v-1.4a.06.06 0 0 1 .07-.07h1.52a.06.06 0 0 1 .07.07v1.2a.96.96 0 0 0 .4.83 2.2 2.2 0 0 0 1.28.29 2.6 2.6 0 0 0 1.36-.26.88.88 0 0 0 .37-.78v-1.28a.73.73 0 0 0-.32-.7 2.6 2.6 0 0 0-1.17-.18h-.95a.06.06 0 0 1-.07-.07v-1.26c0-.05.02-.08.07-.08h.88a2.51 2.51 0 0 0 1.12-.18.72.72 0 0 0 .31-.69v-1.2a.83.83 0 0 0-.35-.76 2.63 2.63 0 0 0-1.3-.22 1.91 1.91 0 0 0-1.18.29 1.05 1.05 0 0 0-.37.83v1.15a.06.06 0 0 1-.08.07h-1.51a.06.06 0 0 1-.08-.07v-1.35a2.02 2.02 0 0 1 .86-1.74 4.1 4.1 0 0 1 2.37-.58 4.78 4.78 0 0 1 2.48.51 1.81 1.81 0 0 1 .82 1.67v1.2a1.57 1.57 0 0 1-1.24 1.69v.07a1.45 1.45 0 0 1 1.39 1.58v1.5a1.88 1.88 0 0 1-.86 1.7 4.79 4.79 0 0 1-2.55.54 4.36 4.36 0 0 1-2.46-.58 2 2 0 0 1-.88-1.74Z" data-name="Path 61853"/>
        <use xlink:href="#f" data-name="Path 61854"/>
        <path d="M91.73 148.96h-1.56a.06.06 0 0 1-.08-.07l-.57-2.16H86.4l-.6 2.16a.06.06 0 0 1-.07.07h-1.56c-.06 0-.08-.02-.06-.07l2.6-10.04c.02-.05.05-.08.08-.08h2.35c.03 0 .05.03.07.08l2.59 10.04a.04.04 0 0 1-.01.05.1.1 0 0 1-.06.02Zm-3.35-6.44q-.08-.34-.18-1.04a10.23 10.23 0 0 1-.13-1.04h-.23q-.04.46-.14 1.1c-.06.44-.11.76-.16.98l-.77 2.81h2.37Z" data-name="Path 61855"/>
        <use xlink:href="#g" data-name="Path 61856"/>
        <use xlink:href="#h" data-name="Path 61857"/>
        <path d="M107.85 143.05h3.52a.06.06 0 0 1 .07.07v1.27a.06.06 0 0 1-.07.07h-3.52v3.09h3.81a.06.06 0 0 1 .07.07v1.27a.06.06 0 0 1-.07.07h-5.4a.06.06 0 0 1-.07-.07v-10.04a.07.07 0 0 1 .07-.07h5.4a.06.06 0 0 1 .07.07v1.24c0 .06-.02.09-.07.09h-3.81Zm.4-5.26 1.14-1.9.02-.02a.12.12 0 0 1 .04 0h1.6a.1.1 0 0 1 .07.19l-1.66 1.85h-1.16a.09.09 0 0 1-.08-.03.1.1 0 0 1 .02-.09Z" data-name="Path 61858"/>
        <path d="M114.97 143.05h3.52a.06.06 0 0 1 .08.07v1.27a.06.06 0 0 1-.08.08h-3.52v3.07h3.81a.06.06 0 0 1 .07.08v1.27a.06.06 0 0 1-.07.07h-5.4a.06.06 0 0 1-.07-.07v-10.04a.06.06 0 0 1 .07-.08h5.4a.06.06 0 0 1 .08.08v1.24c0 .06-.03.09-.08.09h-3.81Z" data-name="Path 61859"/>
        <path d="M120.07 145.35a.06.06 0 0 1 .07-.07h1.52a.06.06 0 0 1 .07.07v1.12a1.06 1.06 0 0 0 .4.91 2.17 2.17 0 0 0 1.26.3 3.03 3.03 0 0 0 1.28-.2.77.77 0 0 0 .38-.76v-.82a.99.99 0 0 0-.27-.71 2.1 2.1 0 0 0-.68-.47q-.4-.18-1.11-.41a15.56 15.56 0 0 1-1.53-.57 2.67 2.67 0 0 1-.96-.75 1.93 1.93 0 0 1-.4-1.27v-.84a1.88 1.88 0 0 1 .84-1.68 4.3 4.3 0 0 1 2.38-.55 4.35 4.35 0 0 1 2.48.6 2.15 2.15 0 0 1 .89 1.91v1.13a.06.06 0 0 1-.08.07h-1.51a.06.06 0 0 1-.08-.07v-1.07a1.02 1.02 0 0 0-.4-.88 2.24 2.24 0 0 0-1.29-.3q-1.57 0-1.58.89v.7a.86.86 0 0 0 .26.61 2.03 2.03 0 0 0 .64.44q.39.17 1.07.4 1.02.34 1.58.59a2.81 2.81 0 0 1 .98.73 1.8 1.8 0 0 1 .43 1.23v1.19a1.88 1.88 0 0 1-.87 1.74 4.75 4.75 0 0 1-2.45.53q-3.33 0-3.33-2.56Z" data-name="Path 61860"/>
      </g>
      <use xlink:href="#a" data-name="Path 61861"/>
      <use xlink:href="#b" data-name="Path 61862"/>
      <path d="M20.81 146.43v-7.58a.06.06 0 0 1 .08-.08h1.5a.06.06 0 0 1 .08.08v7.34a1.46 1.46 0 0 0 .39 1.14 1.87 1.87 0 0 0 1.26.34 1.84 1.84 0 0 0 1.25-.34 1.5 1.5 0 0 0 .38-1.14v-7.34a.06.06 0 0 1 .07-.08h1.52a.06.06 0 0 1 .07.08v7.58a2.36 2.36 0 0 1-.84 2.04 4.1 4.1 0 0 1-2.45.62 4.13 4.13 0 0 1-2.45-.62 2.34 2.34 0 0 1-.86-2.04Z" data-name="Path 61863"/>
      <use xlink:href="#c" data-name="Path 61864"/>
      <use xlink:href="#d" data-name="Path 61865"/>
      <use xlink:href="#e" data-name="Path 61866"/>
      <path d="M55.64 145.35a.06.06 0 0 1 .07-.07h1.52a.06.06 0 0 1 .07.07v1.12a1.06 1.06 0 0 0 .4.91 2.17 2.17 0 0 0 1.26.3 3.03 3.03 0 0 0 1.28-.2.77.77 0 0 0 .38-.76v-.82a.99.99 0 0 0-.27-.71 2.09 2.09 0 0 0-.68-.47c-.27-.12-.64-.26-1.11-.41a15.5 15.5 0 0 1-1.53-.57 2.67 2.67 0 0 1-.96-.75 1.93 1.93 0 0 1-.4-1.27v-.84a1.88 1.88 0 0 1 .85-1.68 4.3 4.3 0 0 1 2.38-.55 4.35 4.35 0 0 1 2.47.6 2.15 2.15 0 0 1 .9 1.9v1.14a.06.06 0 0 1-.08.07h-1.52a.06.06 0 0 1-.07-.07v-1.07a1.02 1.02 0 0 0-.4-.88 2.24 2.24 0 0 0-1.3-.3q-1.57 0-1.57.89v.7a.86.86 0 0 0 .26.61 2.04 2.04 0 0 0 .64.44q.39.17 1.07.4 1.02.34 1.58.59a2.81 2.81 0 0 1 .98.73 1.8 1.8 0 0 1 .43 1.23v1.19a1.88 1.88 0 0 1-.87 1.74 4.75 4.75 0 0 1-2.45.52q-3.33 0-3.33-2.55Z" data-name="Path 61867"/>
      <path d="M66.32 146.78v-1.4a.06.06 0 0 1 .07-.07h1.52a.06.06 0 0 1 .07.07v1.2a.96.96 0 0 0 .4.83 2.2 2.2 0 0 0 1.28.29 2.6 2.6 0 0 0 1.36-.26.88.88 0 0 0 .37-.78v-1.28a.73.73 0 0 0-.32-.7 2.6 2.6 0 0 0-1.17-.18h-.95a.06.06 0 0 1-.07-.07v-1.26c0-.05.02-.08.07-.08h.88a2.51 2.51 0 0 0 1.12-.18.72.72 0 0 0 .31-.69v-1.2a.83.83 0 0 0-.35-.76 2.63 2.63 0 0 0-1.3-.22 1.91 1.91 0 0 0-1.18.29 1.05 1.05 0 0 0-.38.83v1.15a.06.06 0 0 1-.07.07h-1.52a.06.06 0 0 1-.07-.07v-1.35a2.02 2.02 0 0 1 .86-1.74 4.1 4.1 0 0 1 2.36-.58 4.78 4.78 0 0 1 2.49.51 1.81 1.81 0 0 1 .82 1.67v1.2a1.57 1.57 0 0 1-1.24 1.69v.07a1.45 1.45 0 0 1 1.39 1.58v1.5a1.88 1.88 0 0 1-.86 1.7 4.79 4.79 0 0 1-2.55.54 4.36 4.36 0 0 1-2.46-.58 2 2 0 0 1-.88-1.74Z" data-name="Path 61868"/>
      <use xlink:href="#f" data-name="Path 61869"/>
      <path d="M91.73 148.96h-1.56a.06.06 0 0 1-.08-.07l-.57-2.16h-3.13l-.59 2.16a.06.06 0 0 1-.07.07h-1.56c-.06 0-.08-.02-.06-.07l2.6-10.04c.02-.05.05-.08.08-.08h2.35c.03 0 .05.03.07.08l2.59 10.04a.04.04 0 0 1-.02.05.1.1 0 0 1-.05.02Zm-3.36-6.44q-.07-.34-.18-1.04a10.23 10.23 0 0 1-.12-1.04h-.23q-.04.46-.14 1.1c-.06.44-.12.76-.16.98l-.77 2.81h2.37Z" data-name="Path 61870"/>
      <use xlink:href="#g" data-name="Path 61871"/>
      <use xlink:href="#h" data-name="Path 61872"/>
      <path d="M107.85 143.05h3.52a.06.06 0 0 1 .07.07v1.27a.06.06 0 0 1-.07.07h-3.52v3.09h3.81a.06.06 0 0 1 .07.07v1.27a.06.06 0 0 1-.07.07h-5.4a.06.06 0 0 1-.07-.07v-10.04a.07.07 0 0 1 .07-.07h5.4a.06.06 0 0 1 .07.07v1.24c0 .06-.02.09-.07.09h-3.81Zm.4-5.26 1.14-1.9.02-.02a.12.12 0 0 1 .03 0h1.6a.1.1 0 0 1 .08.19l-1.67 1.85h-1.14a.09.09 0 0 1-.08-.03.1.1 0 0 1 .02-.09Z" data-name="Path 61873"/>
      <path d="M114.97 143.05h3.52a.06.06 0 0 1 .08.07v1.27a.06.06 0 0 1-.08.08h-3.52v3.07h3.81a.06.06 0 0 1 .07.08v1.27a.06.06 0 0 1-.07.07h-5.4a.06.06 0 0 1-.07-.07v-10.04a.06.06 0 0 1 .07-.08h5.4a.06.06 0 0 1 .07.08v1.24c0 .06-.02.09-.07.09h-3.81Z" data-name="Path 61874"/>
      <path d="M120.07 145.35a.06.06 0 0 1 .07-.07h1.52a.06.06 0 0 1 .07.07v1.12a1.06 1.06 0 0 0 .4.91 2.17 2.17 0 0 0 1.26.3 3.03 3.03 0 0 0 1.28-.2.77.77 0 0 0 .38-.76v-.82a.99.99 0 0 0-.27-.71 2.1 2.1 0 0 0-.68-.47q-.4-.18-1.11-.41a15.56 15.56 0 0 1-1.53-.57 2.67 2.67 0 0 1-.96-.75 1.93 1.93 0 0 1-.4-1.27v-.84a1.88 1.88 0 0 1 .84-1.68 4.3 4.3 0 0 1 2.38-.55 4.35 4.35 0 0 1 2.48.6 2.15 2.15 0 0 1 .89 1.9v1.14a.06.06 0 0 1-.08.07h-1.51a.06.06 0 0 1-.08-.07v-1.07a1.02 1.02 0 0 0-.4-.88 2.24 2.24 0 0 0-1.29-.3q-1.57 0-1.58.89v.7a.86.86 0 0 0 .26.61 2.03 2.03 0 0 0 .64.44q.39.17 1.07.4 1.02.34 1.58.59a2.81 2.81 0 0 1 .98.73 1.8 1.8 0 0 1 .43 1.23v1.19a1.88 1.88 0 0 1-.87 1.74 4.75 4.75 0 0 1-2.45.52q-3.33 0-3.33-2.55Z" data-name="Path 61875"/>
    </g>
  </g>
</svg>